<svg width="25" height="19" viewBox="0 0 25 19" fill="none" xmlns="http://www.w3.org/2000/svg">
<path d="M20.7412 1.82811C19.1796 1.11157 17.505 0.583655 15.7541 0.281298C15.7222 0.275462 15.6904 0.290045 15.674 0.319212C15.4586 0.702261 15.22 1.20198 15.053 1.59476C13.1698 1.31282 11.2962 1.31282 9.45163 1.59476C9.28454 1.19325 9.03732 0.702261 8.82099 0.319212C8.80456 0.291018 8.77271 0.276435 8.74082 0.281298C6.99089 0.582689 5.31629 1.1106 3.75371 1.82811C3.74018 1.83394 3.72859 1.84367 3.72089 1.8563C0.544529 6.60172 -0.32561 11.2305 0.101251 15.8019C0.103182 15.8242 0.115737 15.8456 0.133121 15.8592C2.22879 17.3983 4.25881 18.3326 6.25113 18.9519C6.28302 18.9616 6.3168 18.9499 6.33709 18.9237C6.80838 18.2801 7.22849 17.6015 7.58869 16.8878C7.60994 16.846 7.58965 16.7965 7.54621 16.7799C6.87984 16.5272 6.24534 16.219 5.63498 15.869C5.5867 15.8408 5.58284 15.7717 5.62725 15.7387C5.75569 15.6424 5.88417 15.5423 6.00681 15.4412C6.029 15.4227 6.05992 15.4188 6.08601 15.4305C10.0958 17.2612 14.4368 17.2612 18.3993 15.4305C18.4254 15.4178 18.4563 15.4217 18.4794 15.4402C18.6021 15.5413 18.7306 15.6424 18.86 15.7387C18.9044 15.7717 18.9015 15.8408 18.8532 15.869C18.2428 16.2258 17.6083 16.5272 16.941 16.779C16.8976 16.7955 16.8782 16.846 16.8995 16.8878C17.2674 17.6005 17.6875 18.2791 18.1501 18.9227C18.1694 18.9499 18.2042 18.9616 18.2361 18.9519C20.2381 18.3326 22.2681 17.3983 24.3637 15.8592C24.3821 15.8456 24.3937 15.8252 24.3956 15.8029C24.9065 10.5178 23.5399 5.927 20.7731 1.85726C20.7663 1.84367 20.7548 1.83394 20.7412 1.82811ZM8.18748 13.0184C6.98027 13.0184 5.98555 11.9101 5.98555 10.549C5.98555 9.18783 6.96097 8.07951 8.18748 8.07951C9.42361 8.07951 10.4087 9.19756 10.3894 10.549C10.3894 11.9101 9.41395 13.0184 8.18748 13.0184ZM16.3287 13.0184C15.1215 13.0184 14.1268 11.9101 14.1268 10.549C14.1268 9.18783 15.1022 8.07951 16.3287 8.07951C17.5649 8.07951 18.5499 9.19756 18.5306 10.549C18.5306 11.9101 17.5649 13.0184 16.3287 13.0184Z" fill="white"/>
</svg>
