<svg width="25" height="25" viewBox="0 0 25 25" fill="none" xmlns="http://www.w3.org/2000/svg">
<path fill-rule="evenodd" clip-rule="evenodd" d="M12.4511 0C5.56595 0 0 5.60699 0 12.5436C0 18.0884 3.5663 22.7819 8.5137 24.4431C9.13225 24.568 9.35882 24.1732 9.35882 23.8412C9.35882 23.5504 9.33843 22.5536 9.33843 21.515C5.87485 22.2628 5.15358 20.0197 5.15358 20.0197C4.59696 18.566 3.77223 18.1924 3.77223 18.1924C2.6386 17.424 3.8548 17.424 3.8548 17.424C5.1123 17.507 5.77214 18.7115 5.77214 18.7115C6.88512 20.622 8.67859 20.0822 9.40011 19.7498C9.50308 18.9399 9.83312 18.3792 10.1836 18.0677C7.4211 17.7769 4.51464 16.6971 4.51464 11.8789C4.51464 10.5083 5.00908 9.38686 5.79253 8.51472C5.66892 8.20327 5.2359 6.91545 5.91639 5.19181C5.91639 5.19181 6.9677 4.85947 9.33818 6.47938C10.3531 6.20481 11.3997 6.06513 12.4511 6.06395C13.5024 6.06395 14.5741 6.20948 15.5637 6.47938C17.9345 4.85947 18.9858 5.19181 18.9858 5.19181C19.6662 6.91545 19.233 8.20327 19.1094 8.51472C19.9135 9.38686 20.3875 10.5083 20.3875 11.8789C20.3875 16.6971 17.4811 17.756 14.6979 18.0677C15.1516 18.4623 15.5431 19.2098 15.5431 20.3936C15.5431 22.0757 15.5227 23.4257 15.5227 23.8409C15.5227 24.1732 15.7495 24.568 16.3678 24.4434C21.3152 22.7817 24.8815 18.0884 24.8815 12.5436C24.9019 5.60699 19.3156 0 12.4511 0Z" fill="white"/>
</svg>
