<svg width="28" height="25" viewBox="0 0 28 25" fill="none" xmlns="http://www.w3.org/2000/svg">
<path d="M14.2612 5.70886C14.2612 6.52237 13.6008 7.17797 12.7921 7.17797C11.9786 7.17797 11.323 6.51759 11.323 5.70886C11.323 4.89534 11.9834 4.23975 12.7921 4.23975C13.6008 4.23975 14.2612 4.90013 14.2612 5.70886Z" fill="white"/>
<path d="M15.2506 2.20606C18.5238 2.20606 18.9114 2.22041 20.1986 2.27784C21.395 2.33048 22.041 2.53146 22.4717 2.69895C23.0411 2.91908 23.4527 3.18706 23.8786 3.61296C24.3093 4.04364 24.5725 4.4504 24.7926 5.01986C24.9601 5.45054 25.1611 6.10135 25.2137 7.29291C25.2711 8.58496 25.2855 8.97258 25.2855 12.241C25.2855 15.5142 25.2711 15.9018 25.2137 17.1891C25.1611 18.3854 24.9601 19.0314 24.7926 19.4621C24.5725 20.0316 24.3045 20.4431 23.8786 20.869C23.4479 21.2997 23.0411 21.5629 22.4717 21.783C22.041 21.9505 21.3902 22.1515 20.1986 22.2041C18.9066 22.2616 18.519 22.2759 15.2506 22.2759C11.9774 22.2759 11.5897 22.2616 10.3025 22.2041C9.10614 22.1515 8.46011 21.9505 8.02943 21.783C7.45997 21.5629 7.04843 21.2949 6.62253 20.869C6.19184 20.4383 5.92865 20.0316 5.70852 19.4621C5.54103 19.0314 5.34005 18.3806 5.28741 17.1891C5.22998 15.897 5.21563 15.5094 5.21563 12.241C5.21563 8.96779 5.22998 8.58018 5.28741 7.29291C5.34005 6.09657 5.54103 5.45054 5.70852 5.01986C5.92865 4.4504 6.19663 4.03886 6.62253 3.61296C7.05321 3.18227 7.45997 2.91908 8.02943 2.69895C8.46011 2.53146 9.11092 2.33048 10.3025 2.27784C11.5897 2.22041 11.9774 2.20606 15.2506 2.20606ZM15.2506 0C11.9247 0 11.5084 0.0143561 10.202 0.0717806C8.90037 0.129205 8.0055 0.339762 7.23027 0.64124C6.42154 0.957075 5.73723 1.3734 5.05771 2.05771C4.3734 2.73723 3.95707 3.42154 3.64124 4.22549C3.33976 5.0055 3.12921 5.89558 3.07178 7.1972C3.01436 8.5084 3 8.92472 3 12.2506C3 15.5764 3.01436 15.9927 3.07178 17.2991C3.12921 18.6008 3.33976 19.4956 3.64124 20.2708C3.95707 21.0796 4.3734 21.7639 5.05771 22.4434C5.73723 23.1229 6.42154 23.544 7.22549 23.8551C8.0055 24.1566 8.89558 24.3671 10.1972 24.4246C11.5036 24.482 11.9199 24.4963 15.2458 24.4963C18.5716 24.4963 18.9879 24.482 20.2943 24.4246C21.596 24.3671 22.4908 24.1566 23.2661 23.8551C24.07 23.544 24.7543 23.1229 25.4338 22.4434C26.1134 21.7639 26.5345 21.0796 26.8455 20.2756C27.147 19.4956 27.3576 18.6055 27.415 17.3039C27.4724 15.9975 27.4868 15.5812 27.4868 12.2553C27.4868 8.92951 27.4724 8.51318 27.415 7.20677C27.3576 5.90515 27.147 5.01029 26.8455 4.23506C26.544 3.42154 26.1277 2.73723 25.4434 2.05771C24.7639 1.37819 24.0796 0.957075 23.2756 0.646026C22.4956 0.344547 21.6055 0.13399 20.3039 0.076566C18.9927 0.0143561 18.5764 0 15.2506 0Z" fill="white"/>
<path d="M15.2505 5.95776C11.7763 5.95776 8.95776 8.77635 8.95776 12.2505C8.95776 15.7247 11.7763 18.5433 15.2505 18.5433C18.7247 18.5433 21.5433 15.7247 21.5433 12.2505C21.5433 8.77635 18.7247 5.95776 15.2505 5.95776ZM15.2505 16.3325C12.9966 16.3325 11.1686 14.5044 11.1686 12.2505C11.1686 9.99662 12.9966 8.16861 15.2505 8.16861C17.5044 8.16861 19.3325 9.99662 19.3325 12.2505C19.3325 14.5044 17.5044 16.3325 15.2505 16.3325Z" fill="white"/>
</svg>
