<svg width="25" height="26" viewBox="0 0 25 26" fill="none" xmlns="http://www.w3.org/2000/svg">
<path d="M22.6875 0.585693H1.80887C0.808728 0.585693 0 1.37528 0 2.3515V23.3162C0 24.2924 0.808728 25.0868 1.80887 25.0868H22.6875C23.6876 25.0868 24.5011 24.2924 24.5011 23.321V2.3515C24.5011 1.37528 23.6876 0.585693 22.6875 0.585693ZM7.26898 21.4643H3.6321V9.76883H7.26898V21.4643ZM5.45054 8.1753C4.28291 8.1753 3.34019 7.23258 3.34019 6.06973C3.34019 4.90689 4.28291 3.96417 5.45054 3.96417C6.61339 3.96417 7.55611 4.90689 7.55611 6.06973C7.55611 7.22779 6.61339 8.1753 5.45054 8.1753ZM20.8786 21.4643H17.2465V15.7793C17.2465 14.425 17.2226 12.6783 15.3563 12.6783C13.466 12.6783 13.1789 14.157 13.1789 15.6835V21.4643H9.55161V9.76883H13.0354V11.3671H13.0832C13.5665 10.4483 14.7533 9.47692 16.5191 9.47692C20.1991 9.47692 20.8786 11.8983 20.8786 15.0471V21.4643Z" fill="white"/>
</svg>
