<svg width="41" height="36" viewBox="0 0 41 36" fill="none" xmlns="http://www.w3.org/2000/svg">
<path fill-rule="evenodd" clip-rule="evenodd" d="M21 24C27.0863 24 31.9375 19.2546 31.9375 13.5C31.9375 7.74538 27.0863 3 21 3C14.9137 3 10.0625 7.74538 10.0625 13.5C10.0625 19.2546 14.9137 24 21 24ZM21 27C28.732 27 35 20.9558 35 13.5C35 6.04416 28.732 0 21 0C13.268 0 7 6.04416 7 13.5C7 20.9558 13.268 27 21 27Z" fill="white"/>
<path fill-rule="evenodd" clip-rule="evenodd" d="M13.5 31.2857C18.3522 31.2857 22.2857 27.3522 22.2857 22.5C22.2857 17.6478 18.3522 13.7143 13.5 13.7143C8.64778 13.7143 4.71429 17.6478 4.71429 22.5C4.71429 27.3522 8.64778 31.2857 13.5 31.2857ZM13.5 36C20.9558 36 27 29.9558 27 22.5C27 15.0442 20.9558 9 13.5 9C6.04416 9 0 15.0442 0 22.5C0 29.9558 6.04416 36 13.5 36Z" fill="#100821"/>
<path fill-rule="evenodd" clip-rule="evenodd" d="M13.5 33C19.299 33 24 28.299 24 22.5C24 16.701 19.299 12 13.5 12C7.70101 12 3 16.701 3 22.5C3 28.299 7.70101 33 13.5 33ZM13.5 36C20.9558 36 27 29.9558 27 22.5C27 15.0442 20.9558 9 13.5 9C6.04416 9 0 15.0442 0 22.5C0 29.9558 6.04416 36 13.5 36Z" fill="white"/>
<path fill-rule="evenodd" clip-rule="evenodd" d="M27.5 31.7143C32.5889 31.7143 36.7143 27.5889 36.7143 22.5C36.7143 17.4111 32.5889 13.2857 27.5 13.2857C22.4111 13.2857 18.2857 17.4111 18.2857 22.5C18.2857 27.5889 22.4111 31.7143 27.5 31.7143ZM27.5 36C34.9558 36 41 29.9558 41 22.5C41 15.0442 34.9558 9 27.5 9C20.0442 9 14 15.0442 14 22.5C14 29.9558 20.0442 36 27.5 36Z" fill="#10081F"/>
<path fill-rule="evenodd" clip-rule="evenodd" d="M27.5 33C33.299 33 38 28.299 38 22.5C38 16.701 33.299 12 27.5 12C21.701 12 17 16.701 17 22.5C17 28.299 21.701 33 27.5 33ZM27.5 36C34.9558 36 41 29.9558 41 22.5C41 15.0442 34.9558 9 27.5 9C20.0442 9 14 15.0442 14 22.5C14 29.9558 20.0442 36 27.5 36Z" fill="white"/>
</svg>
