<svg width="26" height="19" viewBox="0 0 26 19" fill="none" xmlns="http://www.w3.org/2000/svg">
<path d="M25.741 4.09969C25.741 4.09969 25.4871 2.23716 24.7051 1.41933C23.7148 0.34296 22.6078 0.337684 22.1 0.274368C18.4641 -1.50956e-07 13.0051 0 13.0051 0H12.9949C12.9949 0 7.53594 -1.50956e-07 3.9 0.274368C3.39219 0.337684 2.28516 0.34296 1.29492 1.41933C0.512891 2.23716 0.264062 4.09969 0.264062 4.09969C0.264062 4.09969 0 6.28936 0 8.47376V10.521C0 12.7054 0.258984 14.895 0.258984 14.895C0.258984 14.895 0.512891 16.7576 1.28984 17.5754C2.28008 18.6518 3.58008 18.6148 4.15898 18.7309C6.24102 18.9367 13 19 13 19C13 19 18.4641 18.9894 22.1 18.7204C22.6078 18.657 23.7148 18.6518 24.7051 17.5754C25.4871 16.7576 25.741 14.895 25.741 14.895C25.741 14.895 26 12.7106 26 10.521V8.47376C26 6.28936 25.741 4.09969 25.741 4.09969ZM10.3137 13.0061V5.4135L17.3367 9.22299L10.3137 13.0061Z" fill="white"/>
</svg>
